<svg id="Layer_1" data-name="Layer 1" xmlns="http://www.w3.org/2000/svg" xmlns:xlink="http://www.w3.org/1999/xlink" viewBox="0 0 508.13 410.82"><defs><style>.cls-1{fill:url(#linear-gradient);}.cls-2{fill:url(#linear-gradient-2);}.cls-3{fill:url(#radial-gradient);}.cls-4{fill:#231f1f;}</style><linearGradient id="linear-gradient" x1="-10326.4" y1="-8442.14" x2="-10155.5" y2="-8543.12" gradientTransform="translate(1451.21 1254.9) scale(0.12)" gradientUnits="userSpaceOnUse"><stop offset="0" stop-color="#909ca9"/><stop offset="1" stop-color="#ededee"/></linearGradient><linearGradient id="linear-gradient-2" x1="-10322.56" y1="-10345.3" x2="-10185.06" y2="-10345.3" gradientTransform="translate(1451.21 1254.9) scale(0.12)" gradientUnits="userSpaceOnUse"><stop offset="0" stop-color="#939fab"/><stop offset="1" stop-color="#dcdee1"/></linearGradient><radialGradient id="radial-gradient" cx="-3411.78" cy="-6056.26" r="182.56" gradientTransform="matrix(-0.11, -0.02, 0.03, -0.23, 128.7, -1338.2)" gradientUnits="userSpaceOnUse"><stop offset="0" stop-color="#ee352c"/><stop offset="1" stop-color="#a91d22"/></radialGradient></defs><title>sql-server</title><path class="cls-1" d="M344.5,130.81l-56.12,18.32-48.82,21.55-13.66,3.61c-3.47,3.31-7.12,6.66-11.07,10.05-4.32,3.73-8.35,7.13-11.45,9.59a85.76,85.76,0,0,0-11.11,11c-3.86,4.84-6.91,10-8.23,13.92-2.33,7.12-1.19,14.33,3.31,21,5.77,8.48,17.26,17.14,30.67,23a195.68,195.68,0,0,0,27,9c14.38,3.64,42.2,7.59,57.52,8.18a64.49,64.49,0,0,0,7.42,0c.34-.21,2.71-4.75,5.47-10.39,9.42-19.21,16.2-37.24,19.89-52.64,2.21-9.33,3.95-21.75,5.09-36.47.3-4.12.43-17.9.17-22.57a158.16,158.16,0,0,0-2.12-19.89,4.75,4.75,0,0,1-.13-1.74c.17-.13.68-.3,7.6-2.29l-1.4-3.31Zm-12.81,7.51c.51,0,1.86,13,2.2,21.25a10.83,10.83,0,0,1,0,2.88c-.34,0-7.17-4-12-7.08-4.25-2.67-12.3-8-13.58-9-.42-.3-.38-.34,3.1-1.53C317.22,142.81,331.22,138.32,331.69,138.32Zm-28.59,9.42c.38,0,1.36.55,3.69,2,8.74,5.47,20.61,12.09,25.7,14.29,1.57.68,1.74.43-1.86,2.89a185.13,185.13,0,0,1-29.14,15.65c-2.08.93-3.82,1.65-3.86,1.65a10.57,10.57,0,0,1,.51-2.33,125.38,125.38,0,0,0,4.54-29.82c0-4.24,0-4.24.42-4.37-.08.05,0,.05,0,.05ZM297.2,150c.26.26.09,9.76-.25,12.35a107.7,107.7,0,0,1-3.9,18.45,27.48,27.48,0,0,1-1,3c-.17.21-6-5.48-7.89-7.68a57.51,57.51,0,0,1-7.8-11.37,36.11,36.11,0,0,1-2.38-5.77c.68-.46,23-9.12,23.2-9Zm-27.74,10.9a.14.14,0,0,1,.13.05,7.64,7.64,0,0,1,.64,1.52,57.53,57.53,0,0,0,7,12.6,71.21,71.21,0,0,0,9.8,10.56c1,.85,1.95,1.66,2.07,1.78s.34.22-6.57,2.85c-8,3-16.75,6.1-26.76,9.33-2.39.77-4.78,1.54-7.17,2.33-.38.13-.26-.09.85-1.82,5-7.77,12.51-23,16.75-33.77.72-1.86,1.44-3.73,1.57-4.15a1.54,1.54,0,0,1,.93-1.11,4.81,4.81,0,0,1,.72-.17ZM261,164.4a91.69,91.69,0,0,1-4.15,8.78c-4.12,8-8.62,15.91-14.64,25.5-1,1.65-2,3.18-2.12,3.35s-.3.21-1-1.11a38.72,38.72,0,0,1-3.27-9.84,39.54,39.54,0,0,1,.21-12.64c.55-2.63.51-2.58,1.78-3.22,5.43-2.76,23-11,23.16-10.82Zm73.17,3v1.78a231.58,231.58,0,0,1-2.5,31.9c-.26,1.66-.47,3-.51,3.06s-1.23-.34-2.68-.77A109.72,109.72,0,0,1,309,195c-4.11-2.25-10.09-5.94-9.92-6.11s1.82-1,3.9-2.08a249.32,249.32,0,0,0,23.2-13.62c2.59-1.73,6.49-4.53,7.34-5.3l.68-.51ZM229,179.93c.17,0,.13.34-.13,1.86-.17,1.11-.38,3.14-.46,4.54-.35,6.2.67,10.78,3.73,17a33.57,33.57,0,0,1,1.48,3.23c-.3.25-28.37,8.48-37.2,10.9l-5.09,1.4c-.29.08-.34,0-.21-.68,1-6.24,5.73-14.38,12.34-21.25a55.2,55.2,0,0,1,14-10.69c4.33-2.46,11-6.15,11.49-6.32,0,0,0,0,.09,0Zm66.17,11.83a17.7,17.7,0,0,1,2.29,1.23,127.49,127.49,0,0,0,32.49,12.64l1,.21-1.36.77c-5.64,3.14-24.17,10.86-43.13,17.94-2.76,1-5.47,2-6,2.25a2.79,2.79,0,0,1-1,.29s.77-1.52,1.74-3.35a208.67,208.67,0,0,0,13.36-30.41c.34-.8.55-1.53.6-1.57ZM288.38,194a11,11,0,0,1-.72,1.95,267.9,267.9,0,0,1-14.72,29.65c-1.57,2.8-2.88,5.05-2.92,5.05s-1.32-.77-2.85-1.7c-9-5.52-17-12.3-22.18-18.88l-.76-.93,3.86-1.06a279,279,0,0,0,37.24-12.85C287,194.52,288.34,194,288.38,194Zm41.91,14.63h0c0,1-2.12,9.71-3.9,16-1.49,5.31-2.76,9.46-5.09,16.8-1,3.22-1.91,5.9-1.95,5.9a3.32,3.32,0,0,1-.56-.13,177.31,177.31,0,0,1-34.48-9.71c-3-1.19-7.21-3.1-7.46-3.31a47.42,47.42,0,0,1,5.68-2.68c19.3-8.44,39.32-18,46.19-22.14a5.65,5.65,0,0,1,1.57-.76Zm-96.75,3.31c.08.08-5.3,7.85-12.85,18.41-2.63,3.69-5.69,8-6.83,9.63S211,244.1,210,245.63l-1.78,2.76-1.91-1.62a70.43,70.43,0,0,1-7.89-8.05,34.77,34.77,0,0,1-7.08-13.7c-.47-2-.47-3.06-.05-3.18.64-.17,12-2.85,22.57-5.31,5.89-1.35,12.72-3,15.18-3.56s4.46-1.06,4.5-1.06ZM239,214l1.36,1.52a79.45,79.45,0,0,0,19.89,16.29,11.09,11.09,0,0,1,2.29,1.49c-.3.21-26.21,9.41-38.22,13.57-6.74,2.37-12.3,4.28-12.34,4.28a7.42,7.42,0,0,1-.85-.55l-.76-.55,1.23-1.78c4-5.77,9-12.09,19.89-25.24l7.51-9Zm33.85,24.22c0-.05,1.9.63,4.19,1.48a137,137,0,0,0,15.74,4.88,175,175,0,0,0,23.8,4.11c.93.09,1.44.17,1.27.3s-6.53,2.25-11.11,3.69c-7.3,2.29-29.57,8.87-47.72,14.08-3.35,1-6.24,1.78-6.41,1.83a3.4,3.4,0,0,1-1.82-.47,31.38,31.38,0,0,1,2.25-2.84,252.31,252.31,0,0,0,17.22-23.16c1.4-2.12,2.59-3.86,2.59-3.9Zm-7.47.21s-3,4.88-8.23,13.19c-2.25,3.52-4.75,7.51-5.64,8.91s-2.12,3.48-2.84,4.66l-1.23,2.17-.64-.17c-1.52-.43-12.26-4.2-15.1-5.35a102.55,102.55,0,0,1-9.88-4.54c-3.39-1.82-7.63-4.54-7.3-4.62.09,0,5.9-1.61,12.9-3.52,18.58-5.05,28.88-8,35.63-10.09a16.59,16.59,0,0,1,2.33-.64Zm52.81,12.38h0c.17.43-6.7,19.52-9.2,25.54-.56,1.36-.77,1.69-1.06,1.65-.73,0-10.69-1.44-16.76-2.33-10.56-1.61-28.29-4.71-32.74-5.73l-1-.21,6.32-1.44c13.57-3.06,20.1-4.71,26.72-6.75a187.87,187.87,0,0,0,25-9.62,21.25,21.25,0,0,1,2.72-1.11Z"/><path class="cls-2" d="M286.64,0c-.93-.12-16,5.3-25.7,9.25-13.11,5.34-23.29,10.43-29.56,14.84-2.34,1.66-5.26,4.59-5.73,5.73a3.92,3.92,0,0,0-.25,1.44l5.68,5.39L244.61,41l32.19,5.76,36.82,6.32.38-3.18c-.13,0-.21,0-.34,0l-4.83-.76-1-1.74c-5-8.82-10.52-19.77-13.74-27.15A139.4,139.4,0,0,1,287.92,3.1c-.73-2.89-.81-3.05-1.28-3.1ZM286,2.17H286s.21,1.23.38,2.63a89.15,89.15,0,0,0,4.11,17.85c1.57,4.67,1.57,4.41-.25,3.86C285.92,25.32,266.54,22,252.5,20c-2.25-.29-4.16-.59-4.16-.63-.17-.17,10.14-5.56,14.68-7.68C268.83,9,284.78,2.38,286,2.17Zm-40.88,19,1.65.55c9,3.05,31.6,7.38,44.07,8.4,1.4.12,2.59.25,2.63.25a20.4,20.4,0,0,1-2.67,1.4c-6,3-12.64,6.7-17.22,9.55a18.07,18.07,0,0,1-2.76,1.52c-.17,0-1.06-.17-2-.29l-1.7-.26-4.24-4.16c-7.47-7.25-13.32-12.85-15.57-15Zm-1.7,1.31,6,7.47c3.27,4.11,6.57,8.14,7.3,9a13.08,13.08,0,0,1,1.27,1.66c-.17.12-8.65-1.53-13.15-2.55s-6.53-1.57-9.37-2.46l-2.34-.76v-.6c.05-2.84,3.65-7.08,9.76-11.41l.55-.38Zm50.81,10.18c.17,0,.38.38.89,1.53,1.45,3.18,5.94,11.75,7,13.4.34.55.94.6-5-.38-14.38-2.33-19-3.1-19-3.18a4.47,4.47,0,0,1,1-.64,83.23,83.23,0,0,0,12.94-9c1-.8,1.86-1.57,2-1.69s.13-.13.17-.09Z"/><path class="cls-3" d="M226,29.23a4.2,4.2,0,0,0,0,3.69c.56,1.35,2.17,3,4,4.71,0,0,18.88,18.4,21.17,21,10.43,12,15,23.93,15.39,40.3.26,10.52-1.74,19.76-6.7,30.49-8.82,19.26-27.44,40.51-56.16,64.09l4.2-1.4c2.72-2,6.41-4.19,15.06-8.95,20-10.94,42.46-21,70-31.34,39.7-14.93,105-32.41,142.13-38.09l3.86-.59-.59-.94a132.23,132.23,0,0,0-8.53-12,101.83,101.83,0,0,0-30.11-25.07C383,65.87,361.5,58.62,334.28,53.23c-5.14-1-16.42-3-25.58-4.36-19.43-3-32-5.09-45.81-7.47-5-.85-12.39-2.12-17.31-3.18a110.31,110.31,0,0,1-11.23-3c-3.06-1.19-7.47-2.38-8.4-6Zm10.94,10.6a11.8,11.8,0,0,1,1.61.51c1.61.55,3.69,1.19,6.15,1.87q2.79.76,5.6,1.48c2.55.64,4.67,1.23,4.71,1.23.3.3,4.58,14,6,19.26.55,2,1,3.69.94,3.69a8.58,8.58,0,0,1-1.07-1.66c-5-8.74-12.8-17.6-21.88-24.73a17.46,17.46,0,0,1-2.08-1.65Zm20.87,5.77a17.49,17.49,0,0,1,2.29.38c7.21,1.61,20.15,4.07,28.42,5.47A10.51,10.51,0,0,1,291,52a3.92,3.92,0,0,1-1.15.72c-1.4.73-7,4.08-8.9,5.35a81.9,81.9,0,0,0-12,9.58c-1.23,1.23-2.29,2.25-2.29,2.25s-.25-.72-.46-1.61a137.12,137.12,0,0,0-7.6-20.78,19.77,19.77,0,0,1-.84-1.95c0,.08,0,0,0,0Zm36.73,7c.25.08.68,1.52,1.53,4.71a69.19,69.19,0,0,1,2,19.42c-.08,1.78-.17,3.44-.25,3.65l-.13.42-2.2-.72c-4.54-1.44-11.92-3.6-18.24-5.38-3.61-1-6.53-1.87-6.53-2a101.94,101.94,0,0,1,7.5-7.5c4.29-3.78,15.91-12.77,16.29-12.64Zm2.93.42c.12-.13,17.56,2.89,25.49,4.41,5.89,1.15,14.46,2.93,15,3.14.26.09-.64.6-3.48,1.87a184.15,184.15,0,0,0-27.78,15.1c-2.16,1.44-4,2.63-4,2.63a24.52,24.52,0,0,1-.08-2.72,59.39,59.39,0,0,0-4.58-23.07A5.9,5.9,0,0,1,297.42,53Zm45.08,8.91a31.47,31.47,0,0,1-.93,5.6C340,73.85,335.93,83.22,330.88,92a27.12,27.12,0,0,1-1.78,2.89,19,19,0,0,1-2.54-1.36,137.88,137.88,0,0,0-16.63-8.14c-1.7-.72-3.18-1.32-3.22-1.4-.3-.26,13.36-9.29,20.57-13.62,5.72-3.48,15.05-8.65,15.22-8.48Zm3.23.51c.38,0,8.1,2.12,12.13,3.31a248.52,248.52,0,0,1,28.88,10.56l3.1,1.4-2.16.51a316.14,316.14,0,0,0-48.91,15.14c-1.23.51-2.33.93-2.42.93a11.51,11.51,0,0,1,.89-2.16c4.54-9.63,7.47-19.68,8.19-28.25,0-.81.17-1.44.3-1.44ZM268.87,80.08c.13-.12,6,1.28,9.21,2.17,4.83,1.35,15.09,4.79,15.09,5,0,0-1.14,1-2.5,2.21-5.55,4.62-10.9,9.5-17.3,15.69-1.91,1.83-3.52,3.31-3.61,3.31s-.12-.25-.08-.59a95.8,95.8,0,0,0-.6-25.58C269,81.14,268.83,80.12,268.87,80.08Zm123.9.13c.08.08-2.72,4.5-4.5,7-2.54,3.65-6.28,8.48-14.72,19.09-4.45,5.59-9.46,11.91-11.11,14s-3.1,3.91-3.14,3.91a16.32,16.32,0,0,1-1.19-1.7,87.42,87.42,0,0,0-17.18-19c-1.27-1.06-2.67-2.21-3.13-2.54a4.23,4.23,0,0,1-.85-.73c0-.12,7.21-3.22,12.68-5.42,9.59-3.91,22.65-8.57,32.45-11.58,5.13-1.62,10.6-3.19,10.69-3.1Zm3.26.85a9.51,9.51,0,0,1,2.42,1.19,143.51,143.51,0,0,1,28.38,21.29c2.24,2.2,7.8,8,7.71,8s-2,.17-4.24.34c-17.85,1.36-40.71,5.14-62.69,10.44-1.48.34-2.8.63-2.88.63s1.57-1.65,3.65-3.64C381.27,106.89,387.17,99,394.12,85c1-2.07,1.83-3.85,1.91-4Zm-94.46,9.67c.6.13,6.11,2.71,10.27,4.79,3.82,1.91,9.54,5,9.84,5.22,0,0-2,1.1-4.5,2.33-8,4-14.8,7.76-21.93,12.09-2,1.23-3.73,2.25-3.77,2.25s-.13-.17,1-2.25a88.92,88.92,0,0,0,8.61-23.37c.17-.64.34-1.06.46-1.06Zm-5.51,1a81.3,81.3,0,0,1-2.21,8.18,104.43,104.43,0,0,1-7.5,17.22c-.68,1.19-1.7,2.93-2.25,3.91L283,122.75l-2.38-2.29a31.11,31.11,0,0,0-7.89-5.81,10.78,10.78,0,0,1-2-1.19c0-.34,7.25-6.91,12.81-11.66,4-3.44,12.38-10.18,12.51-10Zm33.72,13.87,2.08,1.35a160.2,160.2,0,0,1,14.63,10.82c2.42,2,7.08,6.19,8,7.21l.51.55-3.44,1c-19.43,5.38-34.44,10.18-52,16.62-1.95.72-3.6,1.32-3.73,1.32s-.47.21,3.9-3.82a185.87,185.87,0,0,0,28.5-32.74l1.49-2.29Zm-8.87,2.2c.09.09-5.72,8.27-9.2,12.9-4.16,5.51-11.54,14.76-16.63,20.78-2.12,2.5-3.94,4.58-4,4.62s-.17-.59-.17-1.57a35.58,35.58,0,0,0-3.6-15.27c-1-2-1.15-2.41-.93-2.63.8-.72,13.15-7.76,20.95-12,5.26-2.8,13.49-7,13.61-6.87ZM267.3,121a19.56,19.56,0,0,1,2.21,1.1A47.12,47.12,0,0,1,276.8,127a12.23,12.23,0,0,1-2.46,2c-4,2.88-10.13,7.51-13.7,10.35-3.73,3-3.86,3.05-3.43,2.42a72.78,72.78,0,0,0,9.24-18.67,7.29,7.29,0,0,1,.85-2.16Zm14.3,11.2c.21,0,.46.34,1.61,2A30.67,30.67,0,0,1,288,146.55l.08.85-5.81,2.24c-10.39,4-20,8-26.47,11-1.82.85-5,2.37-7.08,3.39s-3.77,1.87-3.77,1.83,1.31-1,2.92-2.21c12.69-9.2,23.67-19.3,31.9-29.39.89-1.06,1.7-2,1.78-2.08ZM275,133.78c.17.17-4.66,5.64-8,9A140.64,140.64,0,0,1,240.71,164l-2.55,1.61c-.29.17.09-.25,4.5-5,2.8-3,4.92-5.56,7.34-8.7a14.39,14.39,0,0,1,4.24-4C260.47,143.37,274.85,133.61,275,133.78Z"/><path class="cls-4" d="M91.35,309.41c-.78,0-1.57.07-2.34.07-15.8.85-26.46,7.8-32.7,21.38-5.33,12.29-4.74,28.34.06,40.7C62,383.64,71,390,86.08,392.42c3.19.52,5.33,2.27,11.51,9.49l7.6,8.91H119l-9.17-9.25c-5.07-5.07-9.17-9.48-9.17-9.87s1.94-1.23,4.29-1.95c7.74-2.34,14.16-8.32,18.66-17.48,3.64-7.36,4.16-9.63,4.68-18.78,1.37-27.25-13-44.28-36.92-44.09Zm12.09,71.25c-6.71,3.25-16.45,3.9-22.81,1.56-6.57-2.41-12.94-9.24-15.8-17-3.19-8.45-2.73-24.05.91-31.07,5.85-11.18,13.59-16.33,24.89-16.33,16.78,0,26.32,10.28,27.56,29.58,1,16.12-4.41,28.21-14.74,33.22Zm238.23-48c-5.79,0-10.22,2.34-13.2,7l-2.34,3.65v-9.5h-10v56.95h10v-18.2c0-16.65.21-18.59,2.54-23.15,3.2-6.24,8.72-9.36,14-7.87l3.58,1.05V332.7h-4.62v0Zm-58.82-.52a28.49,28.49,0,0,0-6.11.72c-13.4,3.5-21,16.32-20.49,29.51,0,11.05,2.15,16.57,7.48,22.37,10.92,9,20.8,9.67,34.13,4.87,2.27-1,4.75-2.09,4.75-2.09v-9L297.86,381c-10.79,4.69-18.91,4.69-25.42-.84-4.15-4.22-6-9.29-6.82-15.08H306v-7.68c0-15.65-9.42-25.53-23.14-25.28Zm-16.32,25s1.49-9.76,7-13.6a15.15,15.15,0,0,1,8.71-2.78,14,14,0,0,1,8.45,2.85c5.07,3.9,5.92,13.46,5.92,13.46h-30.1v.07ZM25.18,346.86C14.32,340.28,9.51,335.54,10.1,330c1.68-15.47,20.8-13.33,31.38-7.47l.08-10.41a41,41,0,0,0-14.24-2.67c-12.87-.19-21.19,4-25.09,12.61-5.72,12.68-.65,22.23,17.67,32.89,10.29,6,14.83,11.18,14.83,16.85,0,11.7-14.11,15.79-28.66,8.45-3-1.5-5.54-2.74-5.67-2.74-.52,3.32-.25,11.26-.25,11.26a62.81,62.81,0,0,0,11.18,3.17c16.64,3.32,31.78-4.49,33.21-17.16,1.24-11.9-3.06-18.14-19.36-27.88ZM430.27,332a30,30,0,0,0-6.19.72c-13.38,3.5-20.92,16.32-20.4,29.52,0,11,2.14,16.5,7.47,22.29,10.92,9,20.8,9.69,34.19,4.87,2.27-1,4.74-2.07,4.74-2.07v-9l-4.75,2.47c-10.8,4.68-18.93,4.68-25.41-.85-4.18-4.22-6-9.23-6.83-15.08h40.3v-7.68c0-15.58-9.43-25.47-23.14-25.21Zm-16.33,25s1.51-9.75,7-13.66a15.06,15.06,0,0,1,8.7-2.79,13.91,13.91,0,0,1,8.46,2.86c5.07,3.9,5.92,13.52,5.92,13.52H414V357ZM230.45,347c-10.86-6.56-15.66-11.32-15.07-16.91,1.68-15.48,20.79-13.33,31.38-7.48l.07-10.4a40.54,40.54,0,0,0-14.24-2.66c-12.86-.19-21.18,4-25.09,12.62-5.71,12.67-.58,22.22,17.69,32.88,10.27,6,14.81,11.11,14.81,16.78,0,11.7-14.1,15.85-28.66,8.44-3-1.49-5.51-2.72-5.66-2.72-.52,3.32-.26,11.26-.26,11.26A68,68,0,0,0,216.53,392c16.65,3.33,31.8-4.47,33.23-17.14C251,363,246.7,356.75,230.45,347Zm258.64-14.44c-5.78,0-10.26,2.34-13.19,7l-2.34,3.64v-9.48h-10V390.6h10V372.4c0-16.64.2-18.59,2.53-23.14,3.21-6.24,8.72-9.36,14.05-7.86l3.58,1v-9.89ZM150.84,346.66V310.38h-10.1v80.35h42.45v-9.49H150.84V346.66ZM384.25,358l-8.32,21.64-8-21.76-8.13-24.13H349.47c6.7,19,14,38.29,21.32,57,3.18.07,6.37,0,9.56,0l11.23-28.21L403,333.73h-9.87s-4.36,11.44-8.91,24.24ZM174.09,288.49a5.52,5.52,0,0,0,4.1-1.64,5.4,5.4,0,0,0,1.69-4,5.32,5.32,0,0,0-1.69-4,5.63,5.63,0,0,0-4-1.57,5.54,5.54,0,0,0-4.1,1.63,5.41,5.41,0,0,0-1.63,4,5.22,5.22,0,0,0,1.63,4,5.48,5.48,0,0,0,4,1.57Zm-3.57-9.24a5.11,5.11,0,0,1,8.72,3.58,5,5,0,0,1-1.49,3.63,4.89,4.89,0,0,1-3.58,1.43,4.73,4.73,0,0,1-3.58-1.43,5,5,0,0,1-1.49-3.63A4.82,4.82,0,0,1,170.52,279.25Zm2.4,4.1h.66c.46,0,.92.45,1.3,1.3l.79,1.75h1.23l-1-1.95c-.4-.78-.79-1.24-1.24-1.36a2.43,2.43,0,0,0,1.36-.72,1.81,1.81,0,0,0,.44-1.3,1.66,1.66,0,0,0-.58-1.38,3.28,3.28,0,0,0-2.09-.57h-2.07v7.28h1.05v-3Zm0-3.39h.91a2.33,2.33,0,0,1,1.37.33,1,1,0,0,1,.32.91c0,.84-.53,1.24-1.49,1.24h-1.12V280ZM6.2,282.7c0-2.53-.08-4.42-.14-5.53h.06A16.66,16.66,0,0,0,7,280.11l9.69,21.64h1.62L28,279.91a19.78,19.78,0,0,0,.84-2.73h.08c-.19,2.16-.26,4-.26,5.53v19.11H32v-28.4H27.79l-8.91,19.75c-.33.79-.78,2-1.37,3.51h-.13a22.13,22.13,0,0,0-1.3-3.37l-8.7-20H3v28.4H6.15v-19Zm33,.05h2.87v17.69H39.21Zm1.44-6.48a2.05,2.05,0,0,0,1.49-.6,2.08,2.08,0,0,0,.65-1.49,1.86,1.86,0,0,0-.65-1.49,2.05,2.05,0,0,0-1.5-.6,2,2,0,0,0-1.49.6,2.08,2.08,0,0,0-.66,1.49,1.78,1.78,0,0,0,.66,1.49,2.15,2.15,0,0,0,1.49.6Zm21.84,24.56v-3.12a8.26,8.26,0,0,1-5,1.76,6.46,6.46,0,0,1-5-2.09,8.07,8.07,0,0,1-1.89-5.59,8.44,8.44,0,0,1,2-5.91,6.56,6.56,0,0,1,5.07-2.14,8.36,8.36,0,0,1,4.82,1.56V282a9.87,9.87,0,0,0-4.68-1.05A10,10,0,0,0,50.13,284a11.42,11.42,0,0,0-2.85,8.05,10.33,10.33,0,0,0,2.59,7.29,9.22,9.22,0,0,0,7,2.92,11.45,11.45,0,0,0,5.59-1.43Zm8.19-9.43a9.19,9.19,0,0,1,1.49-5.52,4.08,4.08,0,0,1,3.32-1.76,3.8,3.8,0,0,1,2.46.66V281.4a5,5,0,0,0-1.94-.27,5,5,0,0,0-3.13,1.12,6.83,6.83,0,0,0-2.2,3.43H70.6v-4.15H67.36v20.28h3.25V291.4Zm18.66,10.81a9.62,9.62,0,0,0,7.34-2.94,11,11,0,0,0,2.73-7.8c0-3.31-.84-5.85-2.54-7.74a9,9,0,0,0-7.08-2.79,10.15,10.15,0,0,0-7.34,2.67,11.06,11.06,0,0,0-3,8.18,10.55,10.55,0,0,0,2.59,7.48,9.46,9.46,0,0,0,7.28,2.93Zm-4.62-16.52a6.37,6.37,0,0,1,4.87-1.95,6.06,6.06,0,0,1,4.82,1.95,10.87,10.87,0,0,1,.12,11.64,5.93,5.93,0,0,1-4.87,2.08,6.32,6.32,0,0,1-4.94-2.08,8.25,8.25,0,0,1-1.82-5.73,7.93,7.93,0,0,1,1.82-5.91Zm28.92,14.75a5.31,5.31,0,0,0,1.89-4.16,5.05,5.05,0,0,0-1.49-3.7,11.4,11.4,0,0,0-3.78-2.21,12.12,12.12,0,0,1-3.05-1.69,2.76,2.76,0,0,1-.85-2.09,2.45,2.45,0,0,1,1-2,4,4,0,0,1,2.61-.78,7.71,7.71,0,0,1,4.62,1.44V282a9.57,9.57,0,0,0-4.36-1,7.72,7.72,0,0,0-5.14,1.69,5.57,5.57,0,0,0-.72,7.85,10.52,10.52,0,0,0,3.64,2.28,13.51,13.51,0,0,1,3.32,1.88,2.49,2.49,0,0,1,.84,1.94c0,1.89-1.3,2.87-3.83,2.87a8,8,0,0,1-5.27-1.94v3.51a9.55,9.55,0,0,0,5,1.23,8.76,8.76,0,0,0,5.59-1.88Zm15.47-19.5a10.18,10.18,0,0,0-7.34,2.67,11.1,11.1,0,0,0-3,8.18,10.6,10.6,0,0,0,2.59,7.48,10.58,10.58,0,0,0,14.63,0,10.87,10.87,0,0,0,2.73-7.79c0-3.32-.85-5.86-2.53-7.74a9.16,9.16,0,0,0-7.08-2.8Zm6.31,10.66a8.72,8.72,0,0,1-1.63,5.73,5.91,5.91,0,0,1-4.87,2.08,6.32,6.32,0,0,1-4.94-2.08,8.25,8.25,0,0,1-1.82-5.73,8.36,8.36,0,0,1,2-6,6.41,6.41,0,0,1,4.88-1.95,6.16,6.16,0,0,1,4.8,1.95,9.91,9.91,0,0,1,1.62,6Zm8.78,10.15h3.24V284.19h4.75v-2.73h-4.75v-3.13c0-2.85,1.11-4.28,3.39-4.28a4.45,4.45,0,0,1,2.13.53v-2.93a5.94,5.94,0,0,0-2.34-.32,6.05,6.05,0,0,0-4.35,1.62,6.82,6.82,0,0,0-2.09,5.26v3.33h-3.43v2.73h3.43v17.49Zm13.32-5.54c0,4,1.75,6,5.33,6a5.89,5.89,0,0,0,3.06-.67v-2.79a3.4,3.4,0,0,1-2.09.66,2.75,2.75,0,0,1-2.33-.85,4.78,4.78,0,0,1-.72-2.92V284.18h5.14v-2.73h-5.14v-6c-1.12.38-2.22.71-3.26,1v4.93H154v2.73h3.5v12Zm348.87,37.38a5.61,5.61,0,0,0-4-1.56,5.59,5.59,0,0,0-5.73,5.66,5.35,5.35,0,0,0,1.62,4,5.74,5.74,0,0,0,4.1,1.56,5.59,5.59,0,0,0,4.1-1.62,5.49,5.49,0,0,0,1.68-4,5.64,5.64,0,0,0-1.75-4Zm-.53,7.68a4.78,4.78,0,0,1-3.57,1.41,4.84,4.84,0,0,1-3.58-1.41,5.07,5.07,0,0,1-1.49-3.65,4.78,4.78,0,0,1,1.43-3.58,5.29,5.29,0,0,1,7.21,0,4.91,4.91,0,0,1,1.49,3.58A4.67,4.67,0,0,1,505.86,341.27ZM502.94,338a2.79,2.79,0,0,0,1.37-.71,1.86,1.86,0,0,0,.44-1.32,1.64,1.64,0,0,0-.58-1.36,3.29,3.29,0,0,0-2.08-.57H500v7.27h1.05V338.2h.64c.45,0,.9.45,1.3,1.3l.78,1.75H505l-1-1.95c-.34-.85-.73-1.24-1.12-1.36Zm-.71-.65h-1.12v-2.46H502a2.24,2.24,0,0,1,1.37.32c.26.19.32.44.32.91,0,.84-.52,1.23-1.49,1.23ZM320.87,280.62h.91v-7.28h2.41v-.91h-5.73v.91h2.41v7.28Zm5.52-5.47a11.49,11.49,0,0,0-.06-1.62,4.25,4.25,0,0,0,.26.84l2.79,6.25h.45l2.8-6.31c.08-.19.14-.44.26-.78-.06.65-.06,1.17-.06,1.57v5.51h1v-8.18h-1.17l-2.53,5.65c-.06.2-.26.59-.39,1h-.07a6.82,6.82,0,0,0-.38-1l-2.53-5.72h-1.31v8.2h.91v-5.47Z"/></svg>